<svg xmlns="http://www.w3.org/2000/svg" fill="none" viewBox="0 0 34 34" height="34" width="34">
<path fill="#111111" d="M17.0026 2.83398C9.19094 2.83398 2.83594 9.18898 2.83594 17.0007C2.83594 24.8123 9.19094 31.1673 17.0026 31.1673C24.8143 31.1673 31.1693 24.8123 31.1693 17.0007C31.1693 9.18898 24.8143 2.83398 17.0026 2.83398ZM17.0026 33.6673C7.8126 33.6673 0.335938 26.1907 0.335938 17.0007C0.335938 7.81065 7.8126 0.333984 17.0026 0.333984C26.1926 0.333984 33.6693 7.81065 33.6693 17.0007C33.6693 26.1907 26.1926 33.6673 17.0026 33.6673Z" clip-rule="evenodd" fill-rule="evenodd"></path>
<path fill="#111111" d="M22.7208 23.1545C22.5025 23.1545 22.2825 23.0978 22.0808 22.9795L15.7975 19.2312C15.4208 19.0045 15.1875 18.5962 15.1875 18.1562V10.0762C15.1875 9.38617 15.7475 8.82617 16.4375 8.82617C17.1292 8.82617 17.6875 9.38617 17.6875 10.0762V17.4462L23.3625 20.8295C23.9542 21.1845 24.1492 21.9512 23.7958 22.5445C23.5608 22.9362 23.1458 23.1545 22.7208 23.1545Z" clip-rule="evenodd" fill-rule="evenodd"></path>
</svg>
