<svg xmlns="http://www.w3.org/2000/svg" fill="none" viewBox="0 0 29 36" height="36" width="29">
<mask height="36" width="29" y="0" x="0" maskUnits="userSpaceOnUse" style="mask-type:luminance" id="mask0_4501_20103">
<path fill="white" d="M0 0.333984H28.398V35.0785H0V0.333984Z" clip-rule="evenodd" fill-rule="evenodd"></path>
</mask>
<g mask="url(#mask0_4501_20103)">
<path fill="#111111" d="M8.90333 2.83398C4.655 2.83398 2.5 4.47065 2.5 7.70232V32.2423C2.5 32.399 2.59 32.484 2.665 32.5273C2.74 32.574 2.85833 32.6073 2.995 32.5307L13.6317 26.564C14.0117 26.3523 14.4767 26.3507 14.8583 26.5657L25.4033 32.5223C25.5417 32.6023 25.66 32.5657 25.735 32.5207C25.81 32.4757 25.8983 32.3907 25.8983 32.234V8.00732C25.8983 6.72898 25.8983 2.83398 19.5017 2.83398H8.90333ZM2.83167 35.079C2.34 35.079 1.84833 34.9473 1.40167 34.684C0.523333 34.1723 0 33.2573 0 32.2423V7.70232C0 3.01898 3.245 0.333984 8.90333 0.333984H19.5017C25.155 0.333984 28.3983 3.13232 28.3983 8.00732V32.234C28.3983 33.2507 27.875 34.1657 26.995 34.6773C26.1183 35.1907 25.0617 35.2007 24.175 34.7007L14.2417 29.089L4.21667 34.7123C3.78333 34.9557 3.30833 35.079 2.83167 35.079Z" clip-rule="evenodd" fill-rule="evenodd"></path>
</g>
<path fill="#111111" d="M20.2357 14.0488H8.03906C7.34906 14.0488 6.78906 13.4888 6.78906 12.7988C6.78906 12.1088 7.34906 11.5488 8.03906 11.5488H20.2357C20.9257 11.5488 21.4857 12.1088 21.4857 12.7988C21.4857 13.4888 20.9257 14.0488 20.2357 14.0488Z" clip-rule="evenodd" fill-rule="evenodd"></path>
</svg>
