<svg xmlns="http://www.w3.org/2000/svg" fill="none" viewBox="0 0 35 32" height="32" width="35">
<path fill="#111111" d="M33.4794 21.4934H26.7328C23.5711 21.4934 20.9978 18.9218 20.9961 15.7618C20.9961 12.5984 23.5694 10.0251 26.7328 10.0234H33.4794C34.1694 10.0234 34.7294 10.5834 34.7294 11.2734C34.7294 11.9634 34.1694 12.5234 33.4794 12.5234H26.7328C24.9478 12.5251 23.4961 13.9768 23.4961 15.7601C23.4961 17.5418 24.9494 18.9934 26.7328 18.9934H33.4794C34.1694 18.9934 34.7294 19.5534 34.7294 20.2434C34.7294 20.9334 34.1694 21.4934 33.4794 21.4934Z" clip-rule="evenodd" fill-rule="evenodd"></path>
<path fill="#111111" d="M27.4966 16.9063H26.9766C26.2866 16.9063 25.7266 16.3463 25.7266 15.6563C25.7266 14.9663 26.2866 14.4062 26.9766 14.4062H27.4966C28.1866 14.4062 28.7466 14.9663 28.7466 15.6563C28.7466 16.3463 28.1866 16.9063 27.4966 16.9063Z" clip-rule="evenodd" fill-rule="evenodd"></path>
<mask height="32" width="35" y="0" x="0" maskUnits="userSpaceOnUse" style="mask-type:luminance" id="mask0_4501_20116">
<path fill="white" d="M0.332031 0H34.7297V31.9548H0.332031V0Z" clip-rule="evenodd" fill-rule="evenodd"></path>
</mask>
<g mask="url(#mask0_4501_20116)">
<path fill="#111111" d="M10.3287 2.5C6.19536 2.5 2.83203 5.86333 2.83203 9.99667V21.9583C2.83203 26.0917 6.19536 29.455 10.3287 29.455H24.7354C28.8687 29.455 32.2304 26.0917 32.2304 21.9583V9.99667C32.2304 5.86333 28.8687 2.5 24.7354 2.5H10.3287ZM24.7354 31.955H10.3287C4.81703 31.955 0.332031 27.47 0.332031 21.9583V9.99667C0.332031 4.48333 4.81703 0 10.3287 0H24.7354C30.247 0 34.7304 4.48333 34.7304 9.99667V21.9583C34.7304 27.47 30.247 31.955 24.7354 31.955Z" clip-rule="evenodd" fill-rule="evenodd"></path>
</g>
<path fill="#111111" d="M18.139 10.0645H9.14062C8.45062 10.0645 7.89062 9.50445 7.89062 8.81445C7.89062 8.12445 8.45062 7.56445 9.14062 7.56445H18.139C18.829 7.56445 19.389 8.12445 19.389 8.81445C19.389 9.50445 18.829 10.0645 18.139 10.0645Z" clip-rule="evenodd" fill-rule="evenodd"></path>
</svg>
