<svg xmlns="http://www.w3.org/2000/svg" fill="none" viewBox="0 0 40 40" height="40" width="40">
<mask height="31" width="34" y="5" x="3" maskUnits="userSpaceOnUse" style="mask-type:luminance" id="mask0_4501_12381">
<path fill="white" d="M3.33203 5.00098H36.6654V35.2776H3.33203V5.00098Z" clip-rule="evenodd" fill-rule="evenodd"></path>
</mask>
<g mask="url(#mask0_4501_12381)">
<path fill="#111111" d="M5.83203 24.966V28.3743C5.83203 29.551 6.2887 30.656 7.12036 31.4876C7.95203 32.3193 9.0587 32.7776 10.2337 32.7776H29.7604C32.187 32.7776 34.1637 30.8043 34.1654 28.3776V24.9643C32.022 24.4093 30.4337 22.4576 30.432 20.1426C30.432 17.8276 32.0204 15.876 34.1637 15.3193L34.1654 11.911C34.167 9.48098 32.1954 7.50264 29.767 7.50098H10.2387C7.81036 7.50098 5.8337 9.47598 5.83203 11.9043V15.4326C6.64203 15.626 7.3937 16.0243 8.0187 16.6076C8.96703 17.4926 9.5137 18.6926 9.56036 19.9893C9.56536 22.4326 7.97703 24.406 5.83203 24.966ZM29.7604 35.2776H10.2354C8.39037 35.2776 6.65703 34.561 5.35203 33.256C4.0487 31.951 3.33203 30.2176 3.33203 28.3743V23.8743C3.33203 23.1843 3.89203 22.6243 4.58203 22.6243C5.95536 22.6226 7.06537 21.5093 7.0637 20.1426C7.04037 19.446 6.7737 18.866 6.3137 18.436C5.85537 18.006 5.26203 17.771 4.62536 17.806C4.28036 17.8093 3.95703 17.691 3.7137 17.456C3.47036 17.221 3.33203 16.8943 3.33203 16.556V11.906C3.3337 8.09764 6.43203 5.00098 10.2387 5.00098H29.7587C33.5754 5.00264 36.6687 8.10598 36.6654 11.9126V16.411C36.6654 17.101 36.1054 17.661 35.4154 17.661C34.047 17.661 32.932 18.7743 32.932 20.141C32.9337 21.511 34.047 22.6243 35.4154 22.6243C36.1054 22.6243 36.6654 23.1843 36.6654 23.8743V28.3743C36.6637 32.181 33.5654 35.2776 29.7604 35.2776Z" clip-rule="evenodd" fill-rule="evenodd"></path>
</g>
<path fill="#111111" d="M16.8387 18.969L17.6871 19.7957C18.1471 20.2474 18.3554 20.8907 18.2454 21.519L18.0454 22.6824L19.0937 22.1307C19.6587 21.829 20.3371 21.8307 20.9071 22.134L21.9487 22.6807L21.7487 21.5157C21.6437 20.8774 21.8537 20.239 22.3087 19.7957L23.1571 18.969L21.9821 18.799C21.3521 18.7074 20.8054 18.3107 20.5237 17.7357L19.9987 16.674L19.4737 17.7374C19.1921 18.3107 18.6454 18.7074 18.0121 18.799L16.8387 18.969ZM22.6954 25.6457C22.3854 25.6457 22.0754 25.5707 21.7887 25.419L19.9987 24.4807L18.2071 25.4207C17.5471 25.7657 16.7621 25.7107 16.1621 25.274C15.5604 24.8357 15.2654 24.109 15.3904 23.3757L15.7321 21.3824L14.2837 19.9707C13.7521 19.4524 13.5621 18.6907 13.7904 17.984C14.0204 17.2757 14.6204 16.7674 15.3554 16.6607L17.3621 16.3674L18.2571 14.5524C18.5854 13.8857 19.2521 13.4707 19.9987 13.4707C20.7421 13.4707 21.4104 13.8857 21.7387 14.554L22.6354 16.3674L24.6387 16.6607C25.3754 16.7674 25.9771 17.2757 26.2054 17.984C26.4337 18.6907 26.2454 19.4524 25.7121 19.9724L24.2621 21.384L24.6054 23.3757C24.7304 24.1107 24.4337 24.839 23.8304 25.2757C23.4904 25.5207 23.0937 25.6457 22.6954 25.6457Z" clip-rule="evenodd" fill-rule="evenodd"></path>
</svg>
